<?xml version="1.0" encoding="utf-8"?>
<!-- Generator: Adobe Illustrator 16.0.0, SVG Export Plug-In . SVG Version: 6.00 Build 0)  -->
<!DOCTYPE svg PUBLIC "-//W3C//DTD SVG 1.1//EN" "http://www.w3.org/Graphics/SVG/1.1/DTD/svg11.dtd">
<svg version="1.1" id="Capa_1" xmlns="http://www.w3.org/2000/svg" xmlns:xlink="http://www.w3.org/1999/xlink" x="0px" y="0px"
	 width="515.458px" height="515.458px" viewBox="0 0 515.458 515.458" enable-background="new 0 0 515.458 515.458"
	 xml:space="preserve">
<path fill="#5E5437" d="M257.998-0.07c0,0-140.173,49.653-200.162,150.491c0,0,65.172,128.83,0,294.789c0,0,94.661,69.818,159.025,69.818
	c0,0-13.936-127.988,2.355-202.451c0,0-93.852-22.488-101.662-33.326l-0.774-79.968c0,0,59.751,31.054,133.474,33.36h15.013
	c73.655-2.306,133.374-33.36,133.374-33.36l-0.739,79.968c-7.743,10.838-101.665,33.326-101.665,33.326
	c16.294,74.463,2.357,202.451,2.357,202.451c64.364,0,159.026-69.818,159.026-69.818c-65.173-165.959,0-294.789,0-294.789
	C397.632,49.583,257.46-0.07,257.46-0.07"/>
<path fill="#5E5437" d="M303.308,269.218c2.76,10.032,21.546,13.466,41.877,7.743c20.4-5.791,34.605-18.447,31.778-28.446
	c-2.828-9.964-21.544-13.432-41.943-7.675C314.687,246.529,300.48,259.254,303.308,269.218z"/>
<path fill="#5E5437" d="M212.552,266.289c-2.76,9.998-21.544,13.364-41.877,7.71c-20.333-5.723-34.605-18.448-31.778-28.462
	c2.828-9.931,21.545-13.365,41.944-7.642C201.175,243.601,215.38,256.325,212.552,266.289z"/>
</svg>
