<svg version="1.1" id="map" xmlns="http://www.w3.org/2000/svg" xmlns:xlink="http://www.w3.org/1999/xlink" x="0px" y="0px" width="375.221px" height="321.33px" viewBox="0 0 375.221 321.33" enable-background="new 0 0 375.221 321.33" xml:space="preserve">
<image overflow="visible" width="170" height="197" id="A1" xlink:href="AC09D559.png" transform="matrix(0.24 0 0 0.24 1.7629 48.7412)">
</image>
<image overflow="visible" width="169" height="197" id="A2" xlink:href="AC09D55D.png" transform="matrix(0.24 0 0 0.24 40.7629 48.7412)">
</image>
<image overflow="visible" width="169" height="197" id="A3" xlink:href="AC09D55E.png" transform="matrix(0.24 0 0 0.24 79.7629 48.7412)">
</image>
<image overflow="visible" width="170" height="197" id="A4" xlink:href="AC09D55F.png" transform="matrix(0.24 0 0 0.24 118.7629 48.7412)">
</image>
<image overflow="visible" width="169" height="197" id="A5" xlink:href="AC09D554.png" transform="matrix(0.24 0 0 0.24 157.7629 48.7412)">
</image>
<image overflow="visible" width="169" height="197" id="A6" xlink:href="AC09D555.png" transform="matrix(0.24 0 0 0.24 196.7629 48.7412)">
</image>
<image overflow="visible" width="169" height="197" id="A7" xlink:href="AC09D556.png" transform="matrix(0.24 0 0 0.24 235.7629 48.7412)">
</image>
<image overflow="visible" width="169" height="197" id="A8" xlink:href="AC09D557.png" transform="matrix(0.24 0 0 0.24 274.7629 48.7412)">
</image>
<image overflow="visible" width="169" height="197" id="A9" xlink:href="AC09D569.png" transform="matrix(0.24 0 0 0.24 313.7629 48.7412)">
</image>
<image overflow="visible" width="169" height="197" id="B1" xlink:href="DD6BD5E2.png" transform="matrix(0.24 0 0 0.24 21.3899 82.7412)">
</image>
<image overflow="visible" width="169" height="197" id="B2" xlink:href="DD6BD5E5.png" transform="matrix(0.24 0 0 0.24 60.3899 82.7412)">
</image>
<image overflow="visible" width="169" height="197" id="B3" xlink:href="DD6BD5E6.png" transform="matrix(0.24 0 0 0.24 99.3899 82.7412)">
</image>
<image overflow="visible" width="169" height="197" id="B4" xlink:href="DD6BD5E4.png" transform="matrix(0.24 0 0 0.24 138.3899 82.7412)">
</image>
<image overflow="visible" width="169" height="197" id="B5" xlink:href="DD6BD5E3.png" transform="matrix(0.24 0 0 0.24 177.3899 82.7412)">
</image>
<image overflow="visible" width="169" height="197" id="B6" xlink:href="DD6BD5FD.png" transform="matrix(0.24 0 0 0.24 216.3899 82.7412)">
</image>
<image overflow="visible" width="169" height="197" id="B7" xlink:href="DD6BD5FE.png" transform="matrix(0.24 0 0 0.24 255.3899 82.7412)">
</image>
<image overflow="visible" width="169" height="197" id="B8" xlink:href="DD6BD5FC.png" transform="matrix(0.24 0 0 0.24 294.3899 82.7412)">
</image>
<image overflow="visible" width="169" height="197" id="B9" xlink:href="DD6BD5E7.png" transform="matrix(0.24 0 0 0.24 333.3899 82.7412)">
</image>
<image overflow="visible" width="169" height="197" id="C1" xlink:href="DD6BD5E9.png" transform="matrix(0.24 0 0 0.24 1.7629 116.7412)">
</image>
<image overflow="visible" width="169" height="197" id="C2" xlink:href="DD6BD619.png" transform="matrix(0.24 0 0 0.24 40.7629 116.7412)">
</image>
<image overflow="visible" width="169" height="197" id="C3" xlink:href="DD6BD61B.png" transform="matrix(0.24 0 0 0.24 79.7629 116.7412)">
</image>
<image overflow="visible" width="169" height="197" id="C4" xlink:href="DD6BD618.png" transform="matrix(0.24 0 0 0.24 118.7629 116.7412)">
</image>
<image overflow="visible" width="169" height="197" id="C5" xlink:href="DD6BD607.png" transform="matrix(0.24 0 0 0.24 157.7629 116.7412)">
</image>
<image overflow="visible" width="169" height="197" id="C6" xlink:href="DD6BD609.png" transform="matrix(0.24 0 0 0.24 196.7629 116.7412)">
</image>
<image overflow="visible" width="169" height="197" id="C7" xlink:href="DD6BD60B.png" transform="matrix(0.24 0 0 0.24 235.7629 116.7412)">
</image>
<image overflow="visible" width="169" height="197" id="C8" xlink:href="DD6BD608.png" transform="matrix(0.24 0 0 0.24 274.7629 116.7412)">
</image>
<image overflow="visible" width="169" height="197" id="C9" xlink:href="DD6BD60F.png" transform="matrix(0.24 0 0 0.24 313.7629 116.7412)">
</image>
<image overflow="visible" width="169" height="197" id="D1" xlink:href="DD6BD60A.png" transform="matrix(0.24 0 0 0.24 21.3899 150.7412)">
</image>
<image overflow="visible" width="169" height="197" id="D2" xlink:href="DD6BD636.png" transform="matrix(0.24 0 0 0.24 60.3899 150.7412)">
</image>
<image overflow="visible" width="169" height="197" id="D3" xlink:href="DD6BD62C.png" transform="matrix(0.24 0 0 0.24 99.3899 150.7412)">
</image>
<image overflow="visible" width="169" height="197" id="D4" xlink:href="DD6BD613.png" transform="matrix(0.24 0 0 0.24 138.3899 150.7412)">
</image>
<image overflow="visible" width="169" height="197" id="D5" xlink:href="DD6BD614.png" transform="matrix(0.24 0 0 0.24 177.3899 150.7412)">
</image>
<image overflow="visible" width="169" height="197" id="D6" xlink:href="DD6BD617.png" transform="matrix(0.24 0 0 0.24 216.3899 150.7412)">
</image>
<image overflow="visible" width="169" height="197" id="D7" xlink:href="DD6BD615.png" transform="matrix(0.24 0 0 0.24 255.3899 150.7412)">
</image>
<image overflow="visible" width="169" height="197" id="D8" xlink:href="DD6BD612.png" transform="matrix(0.24 0 0 0.24 294.3899 150.7412)">
</image>
<image overflow="visible" width="169" height="197" id="D9" xlink:href="DD6BD61C.png" transform="matrix(0.24 0 0 0.24 333.3899 150.7412)">
</image>
<image overflow="visible" width="169" height="197" id="E1" xlink:href="DD6BD61F.png" transform="matrix(0.24 0 0 0.24 1.7629 184.7412)">
</image>
<image overflow="visible" width="169" height="197" id="E2" xlink:href="DD6BD61D.png" transform="matrix(0.24 0 0 0.24 40.7629 184.7412)">
</image>
<image overflow="visible" width="169" height="197" id="E3" xlink:href="DD6BD611.png" transform="matrix(0.24 0 0 0.24 79.7629 184.7412)">
</image>
<image overflow="visible" width="169" height="197" id="E4" xlink:href="DD6BD67F.png" transform="matrix(0.24 0 0 0.24 118.7629 184.7412)">
</image>
<image overflow="visible" width="169" height="197" id="E5" xlink:href="DD6BD671.png" transform="matrix(0.24 0 0 0.24 157.7629 184.7412)">
</image>
<image overflow="visible" width="169" height="197" id="E6" xlink:href="DD6BD673.png" transform="matrix(0.24 0 0 0.24 196.7629 184.7412)">
</image>
<image overflow="visible" width="169" height="197" id="E7" xlink:href="DD6BD676.png" transform="matrix(0.24 0 0 0.24 235.7629 184.7412)">
</image>
<image overflow="visible" width="169" height="197" id="E8" xlink:href="DD6BD677.png" transform="matrix(0.24 0 0 0.24 274.7629 184.7412)">
</image>
<image overflow="visible" width="169" height="197" id="E9" xlink:href="DD6BD672.png" transform="matrix(0.24 0 0 0.24 313.7629 184.7412)">
</image>
<image overflow="visible" width="169" height="197" id="F1" xlink:href="DD6BD66D.png" transform="matrix(0.24 0 0 0.24 21.3899 218.7412)">
</image>
<image overflow="visible" width="169" height="197" id="F2" xlink:href="DD6BD66E.png" transform="matrix(0.24 0 0 0.24 60.3899 218.7412)">
</image>
<image overflow="visible" width="169" height="197" id="F3" xlink:href="DD6BD66F.png" transform="matrix(0.24 0 0 0.24 99.3899 218.7412)">
</image>
<image overflow="visible" width="169" height="197" id="F4" xlink:href="DD6BD651.png" transform="matrix(0.24 0 0 0.24 138.3899 218.7412)">
</image>
<image overflow="visible" width="169" height="197" id="F5" xlink:href="DD6BD64E.png" transform="matrix(0.24 0 0 0.24 177.3899 218.7412)">
</image>
<image overflow="visible" width="169" height="197" id="F6" xlink:href="DD6BD649.png" transform="matrix(0.24 0 0 0.24 216.3899 218.7412)">
</image>
<image overflow="visible" width="169" height="197" id="F7" xlink:href="DD6BD64A.png" transform="matrix(0.24 0 0 0.24 255.3899 218.7412)">
</image>
<image overflow="visible" width="169" height="197" id="F8" xlink:href="DD6BD648.png" transform="matrix(0.24 0 0 0.24 294.3899 218.7412)">
</image>
<image overflow="visible" width="169" height="197" id="F9" xlink:href="DD6BD6B6.png" transform="matrix(0.24 0 0 0.24 333.3899 218.7412)">
</image>
</svg>