<?xml version="1.0" encoding="utf-8"?>
<!-- Generator: Adobe Illustrator 16.0.0, SVG Export Plug-In . SVG Version: 6.00 Build 0)  -->
<!DOCTYPE svg PUBLIC "-//W3C//DTD SVG 1.1//EN" "http://www.w3.org/Graphics/SVG/1.1/DTD/svg11.dtd">
<svg version="1.1" id="Слой_1" xmlns="http://www.w3.org/2000/svg" xmlns:xlink="http://www.w3.org/1999/xlink" x="0px" y="0px"
	 width="40px" height="40px" viewBox="0 0 40 40" enable-background="new 0 0 40 40" xml:space="preserve">
<polygon id="A1_4_" display="none" fill="#D4DFBC" stroke="#BAC4A4" stroke-miterlimit="10" points="20.13,37.473 4.949,28.706 
	4.949,11.176 20.13,2.411 35.313,11.176 35.313,28.706 "/>
<path fill="#BAC4A4" stroke="#BAC4A4" stroke-miterlimit="10" d="M28.313,15.764c-0.27-0.295-0.723-0.332-1.035-0.083l-1.754,1.401
	l-4.633-7.315c-0.14-0.22-0.382-0.353-0.642-0.353c-0.261,0-0.503,0.133-0.643,0.353l-3.954,6.247l-1.483-2.17
	c-0.141-0.208-0.375-0.332-0.626-0.332c-0.25,0-0.484,0.124-0.627,0.332l-5.074,7.43c-0.238,0.347-0.148,0.818,0.196,1.055
	c0.131,0.09,0.282,0.134,0.429,0.134c0.243,0,0.479-0.116,0.627-0.332l0.293-0.429l4.157-6.083l1.226,1.793l-2.716,4.29
	l-1.965,3.104c-0.224,0.354-0.118,0.823,0.235,1.047c0.125,0.082,0.268,0.119,0.407,0.119c0.25,0,0.497-0.128,0.64-0.354l0.362-0.57
	l8.517-13.453l6.92,10.932l0.172,0.271c0.225,0.354,0.694,0.461,1.047,0.235c0.323-0.203,0.438-0.611,0.288-0.948
	c-0.015-0.034-0.032-0.066-0.052-0.1l-2.287-3.609l1.333-1.062l4.556,5.005l0.533,0.584c0.147,0.162,0.354,0.246,0.561,0.246
	c0.183,0,0.363-0.063,0.512-0.197c0.311-0.281,0.333-0.762,0.052-1.07L28.313,15.764z"/>
</svg>
