<?xml version="1.0" encoding="utf-8"?>
<!-- Generator: Adobe Illustrator 16.0.0, SVG Export Plug-In . SVG Version: 6.00 Build 0)  -->
<!DOCTYPE svg PUBLIC "-//W3C//DTD SVG 1.1//EN" "http://www.w3.org/Graphics/SVG/1.1/DTD/svg11.dtd">
<svg version="1.1" id="Слой_1" xmlns="http://www.w3.org/2000/svg" xmlns:xlink="http://www.w3.org/1999/xlink" x="0px" y="0px"
	 width="40px" height="40px" viewBox="0 0 40 40" enable-background="new 0 0 40 40" xml:space="preserve">
<polygon id="A1_3_" fill="#D4DFBC" stroke="#BAC4A4" stroke-miterlimit="10" points="20.218,37.825 5.032,29.059 5.032,11.524 
	20.218,2.757 35.403,11.524 35.403,29.059 "/>
<path fill="#BAC4A4" stroke="#BAC4A4" stroke-miterlimit="10" d="M24.96,15.54c-0.155-1.076-0.671-2.066-1.477-2.815
	c-0.89-0.828-2.05-1.285-3.265-1.285c-1.216,0-2.376,0.457-3.265,1.285c-0.805,0.75-1.321,1.74-1.478,2.815
	c-1.732,0.757-2.875,2.483-2.875,4.393c0,2.642,2.15,4.79,4.792,4.79c0.814,0,1.608-0.204,2.311-0.593v4.883h1.03V24.13
	c0.702,0.389,1.496,0.593,2.31,0.593c2.644,0,4.791-2.148,4.791-4.79C27.834,18.022,26.693,16.297,24.96,15.54z M23.043,23.694
	c-0.84,0-1.652-0.28-2.31-0.793v-3.149l2.31-1.214l-0.48-0.912l-1.829,0.962v-2.027h-1.03v4.309l-1.83-0.962l-0.48,0.911l2.31,1.214
	v0.867c-0.658,0.513-1.47,0.793-2.311,0.793c-2.075,0-3.762-1.688-3.762-3.762c0-1.586,1.004-3.01,2.496-3.543l0.315-0.113
	l0.025-0.333c0.072-0.943,0.493-1.818,1.188-2.466c0.698-0.65,1.607-1.008,2.563-1.008c0.955,0,1.865,0.358,2.564,1.008
	c0.694,0.647,1.116,1.523,1.187,2.466l0.027,0.333l0.313,0.113c1.494,0.534,2.497,1.958,2.497,3.543
	C26.806,22.007,25.119,23.694,23.043,23.694z"/>
</svg>
